<svg xmlns="http://www.w3.org/2000/svg" viewBox="0 0 2048 2048" width="200" height="200">
  <defs>
    <linearGradient id="phymacBlue" x1="0%" y1="0%" x2="100%" y2="100%">
      <stop offset="0%" style="stop-color:#2962FF"/>
      <stop offset="100%" style="stop-color:#0039CB"/>
    </linearGradient>
  </defs>
  <g transform="translate(0,2048) scale(0.1,-0.1)" fill="url(#phymacBlue)">
    <!-- Círculo exterior del logo -->
    <path d="M9980 19369 c-47 -4 -160 -12 -251 -19 -302 -20 -733 -80 -979 -136
-519 -119 -798 -208 -1320 -422 -173 -72 -475 -223 -748 -374 -92 -52 -380
-235 -400 -255 -7 -7 -17 -13 -21 -13 -9 0 -286 -193 -311 -216 -8 -8 -46 -38
-85 -67 -78 -59 -90 -68 -184 -147 -36 -31 -78 -65 -93 -76 -15 -12 -57 -48
-94 -80 -37 -33 -90 -79 -118 -103 -143 -125 -486 -485 -645 -677 -13 -16 -38
-45 -55 -64 -96 -110 -182 -221 -360 -465 -301 -412 -636 -1021 -828 -1505
-69 -174 -203 -553 -223 -631 -9 -35 -34 -123 -56 -195 -72 -241 -190 -852
-223 -1164 -60 -557 -55 -1224 14 -1730 34 -250 150 -809 200 -965 10 -33 40
-132 66 -220 61 -209 196 -573 296 -800 353 -798 772 -1439 1359 -2080 473
-517 1060 -993 1674 -1359 198 -118 228 -134 436 -240 486 -247 898 -401 1484
-556 346 -92 919 -176 1375 -201 195 -11 758 -7 860 5 19 3 73 7 120 10 104 7
445 49 572 71 468 81 873 194 1358 378 181 68 268 106 495 215 490 235 856
459 1315 806 151 114 185 142 329 266 48 41 107 92 132 113 93 81 489 479 584
589 216 248 428 518 550 699 53 79 102 151 109 159 12 15 85 133 179 288 193
315 426 796 556 1147 97 259 171 480 204 605 8 30 29 102 45 160 30 100 139
628 161 775 58 387 75 619 75 1035 1 598 -32 935 -149 1515 -30 149 -66 311
-79 360 -39 145 -133 467 -155 526 -11 30 -42 117 -70 194 -91 256 -161 420
-321 750 -91 189 -283 523 -410 713 -30 46 -68 105 -85 132 -16 26 -50 75 -75
109 -104 143 -235 318 -264 352 -17 20 -56 67 -86 104 -70 87 -80 96 -91 90
-5 -4 -6 0 -3 8 5 14 -12 35 -238 277 -149 160 -379 384 -508 495 -133 114
-193 164 -231 195 -24 19 -59 49 -79 65 -20 17 -49 39 -64 50 -16 11 -61 45
-101 76 -41 31 -154 109 -252 175 -98 65 -180 122 -183 125 -6 8 -342 208
-395 236 -22 12 -78 42 -125 67 -161 87 -425 214 -545 261 -66 26 -129 51
-140 56 -95 40 -382 144 -500 182 -145 47 -423 123 -535 147 -30 7 -80 18
-110 26 -434 108 -1366 190 -1760 153z m970 -919 c355 -45 753 -124 1015 -200
127 -36 213 -63 230 -70 11 -5 31 -12 45 -15 60 -16 421 -153 525 -199 130
-59 188 -87 315 -151 255 -128 295 -150 303 -162 4 -7 13 -13 20 -13 7 0 47
-23 90 -50 43 -28 80 -50 82 -50 27 0 571 -391 729 -524 454 -382 859 -809
1148 -1211 317 -441 479 -717 691 -1175 61 -133 78 -172 127 -295 207 -518
362 -1143 415 -1680 9 -88 18 -176 21 -195 13 -83 16 -740 5 -904 -26 -376
-81 -733 -172 -1116 -87 -366 -259 -849 -424 -1195 -32 -66 -71 -149 -87 -185
-70 -155 -378 -662 -512 -845 -338 -458 -576 -725 -967 -1085 -300 -276 -804
-648 -1084 -800 -44 -24 -111 -62 -150 -85 -90 -55 -298 -158 -450 -225 -66
-29 -160 -70 -210 -92 -291 -130 -668 -247 -1100 -342 -814 -179 -1824 -178
-2639 4 -260 58 -545 134 -668 179 -29 11 -111 41 -183 66 -259 93 -660 278
-935 433 -167 94 -407 242 -480 297 -30 23 -84 61 -120 85 -87 59 -306 229
-460 358 -285 239 -741 724 -978 1042 -150 201 -186 252 -279 395 -91 140
-110 171 -231 385 -264 470 -480 1011 -628 1579 -38 145 -121 562 -138 697
-77 594 -71 1284 15 1814 86 523 203 968 353 1339 24 58 49 123 56 144 7 22
29 76 49 120 21 45 51 111 67 147 15 36 48 103 73 150 24 47 64 126 89 175
108 214 300 520 466 745 126 171 249 335 255 340 4 3 19 21 35 40 207 254 632
678 891 887 247 200 371 292 575 427 102 67 230 146 237 146 4 0 14 6 22 14
17 15 38 27 163 94 42 23 99 55 128 72 28 16 53 30 55 30 3 0 82 38 177 83
218 105 212 103 403 177 88 34 169 66 180 70 48 20 329 110 420 134 55 15 116
31 135 36 97 26 598 122 725 139 94 12 364 39 450 45 33 2 260 2 505 1 384 -3
468 -6 610 -25z"/>
    <!-- Símbolo interior (flecha/triángulo) -->
    <path d="M13452 16011 c-223 -230 -453 -465 -700 -716 -406 -413 -754 -768
-1122 -1145 -195 -201 -387 -396 -426 -435 -88 -87 -428 -436 -854 -875 -309
-319 -551 -566 -1066 -1090 -127 -129 -336 -343 -465 -474 -129 -132 -378
-386 -554 -565 -176 -179 -392 -400 -480 -491 -88 -91 -284 -291 -435 -445
-383 -390 -606 -618 -971 -995 -173 -179 -323 -333 -334 -342 -19 -16 41 -17
1118 -18 l1137 0 0 175 0 175 -531 0 -531 0 40 48 c163 194 513 528 727 694
278 215 578 422 753 518 15 8 41 25 57 36 43 31 424 221 597 298 445 198 1068
376 1562 446 508 71 961 77 1493 19 325 -35 689 -112 993 -208 68 -22 126 -39
127 -37 2 1 2 1254 1 2783 l-3 2781 -133 -137z"/>
  </g>
</svg>
